nColumns=19
nRows=75
DataType=double
version=3
OpenSimVersion=4.1
endheader
time	ground_force_1_vx	ground_force_1_vy	ground_force_1_vz	ground_force_1_px	ground_force_1_py	ground_force_1_pz	ground_force_1_mx	ground_force_1_my	ground_force_1_mz	ground_force_2_vx	ground_force_2_vy	ground_force_2_vz	ground_force_2_px	ground_force_2_py	ground_force_2_pz	ground_force_2_mx	ground_force_2_my	ground_force_2_mz
0	-130.608	530.695	42.259	0.045123	0.006	-0.20087	0	2.44564	0	0	0	0	0.6695	0	-0.269741	0	0	0
0.01	-142.502	583.191	41.1072	0.0478769	0.006	-0.200001	0	3.0173	0	0	0	0	0.6695	0	-0.269741	0	0	0
0.02	-154.938	669.678	31.3187	0.0545399	0.006	-0.197275	0	3.39929	0	0	0	0	0.6695	0	-0.269741	0	0	0
0.03	-176.262	727.997	6.58415	0.0630389	0.006	-0.193205	0	1.99641	0	0	0	0	0.6695	0	-0.269741	0	0	0
0.04	-202.27	764.923	-13.6566	0.0709449	0.006	-0.190019	0	0.586523	0	0	0	0	0.6695	0	-0.269741	0	0	0
0.05	-218.597	806.824	-29.3961	0.078204	0.006	-0.187063	0	0.150197	0	0	0	0	0.6695	0	-0.269741	0	0	0
0.06	-226.776	840.439	-37.3306	0.0838144	0.006	-0.185035	0	0.49585	0	0	0	0	0.6695	0	-0.269741	0	0	0
0.07	-230.553	877.731	-51.7807	0.0887525	0.006	-0.183121	0	-0.172096	0	0	0	0	0.6695	0	-0.269741	0	0	0
0.08	-234.184	926.895	-68.2907	0.0930646	0.006	-0.18142	0	-0.792153	0	0	0	0	0.6695	0	-0.269741	0	0	0
0.09	-230.568	969.589	-68.8858	0.0957619	0.006	-0.180975	0	-0.0819992	0	0	0	0	0.6695	0	-0.269741	0	0	0
0.1	-221.55	1010.99	-61.6989	0.0978453	0.006	-0.181227	0	0.814196	0	0	0	0	0.6695	0	-0.269741	0	0	0
0.11	-208.961	1041.15	-52.8259	0.099354	0.006	-0.181484	0	1.26322	0	0	0	0	0.6695	0	-0.269741	0	0	0
0.12	-193.954	1054.49	-43.2434	0.101315	0.006	-0.181545	0	1.84629	0	0	0	0	0.6695	0	-0.269741	0	0	0
0.13	-179.024	1053.7	-37.117	0.103172	0.006	-0.181206	0	2.22048	0	0	0	0	0.6695	0	-0.269741	0	0	0
0.14	-164.07	1044.53	-36.7508	0.105156	0.006	-0.180354	0	2.30906	0	0	0	0	0.6695	0	-0.269741	0	0	0
0.15	-151.665	1024.73	-38.7879	0.107316	0.006	-0.179044	0	2.25433	0	0	0	0	0.6695	0	-0.269741	0	0	0
0.16	-138.458	994.522	-41.7175	0.109631	0.006	-0.177395	0	2.00929	0	0	0	0	0.6695	0	-0.269741	0	0	0
0.17	-126.556	963.196	-44.7922	0.112507	0.006	-0.175513	0	1.79647	0	0	0	0	0.6695	0	-0.269741	0	0	0
0.18	-115.562	929.993	-47.1344	0.11572	0.006	-0.173429	0	1.65612	0	0	0	0	0.6695	0	-0.269741	0	0	0
0.19	-104.813	893.204	-48.111	0.119161	0.006	-0.171195	0	1.31028	0	0	0	0	0.6695	0	-0.269741	0	0	0
0.2	-94.7037	856.171	-47.0352	0.122802	0.006	-0.169001	0	1.08155	0	0	0	0	0.6695	0	-0.269741	0	0	0
0.21	-85.1593	820.587	-45.1279	0.126597	0.006	-0.166863	0	0.880102	0	0	0	0	0.6695	0	-0.269741	0	0	0
0.22	-76.3702	785.233	-42.2974	0.130265	0.006	-0.164728	0	0.511634	0	0	0	0	0.6695	0	-0.269741	0	0	0
0.23	-68.3746	752.869	-38.9938	0.133903	0.006	-0.162748	0	0.216478	0	0	0	0	0.6695	0	-0.269741	0	0	0
0.24	-61.2259	726.257	-36.0108	0.137686	0.006	-0.160693	0	-0.0371555	0	0	0	0	0.6695	0	-0.269741	0	0	0
0.25	-54.7638	706.024	-33.1192	0.141418	0.006	-0.159042	0	-0.115898	0	0	0	0	0.6695	0	-0.269741	0	0	0
0.26	-48.5001	692.673	-31.5018	0.144776	0.006	-0.157438	0	-0.272647	0	0	0	0	0.6695	0	-0.269741	0	0	0
0.27	-42.5644	685.776	-30.9525	0.147536	0.006	-0.155978	0	-0.323231	0	0	0	0	0.6695	0	-0.269741	0	0	0
0.28	-37.4222	683.807	-31.3416	0.150395	0.006	-0.154865	0	-0.385293	0	0	0	0	0.6695	0	-0.269741	0	0	0
0.29	-32.7606	684.921	-31.5704	0.15313	0.006	-0.153742	0	-0.471012	0	0	0	0	0.6695	0	-0.269741	0	0	0
0.3	-28.2974	687.408	-31.4407	0.155746	0.006	-0.152781	0	-0.735293	0	0	0	0	0.6695	0	-0.269741	0	0	0
0.31	-23.6282	690.552	-30.8456	0.15812	0.006	-0.152027	0	-0.964236	0	0	0	0	0.6695	0	-0.269741	0	0	0
0.32	-19.3252	695.938	-29.5486	0.160582	0.006	-0.151462	0	-1.23781	0	0	0	0	0.6695	0	-0.269741	0	0	0
0.33	-14.7018	703.522	-28.1448	0.162808	0.006	-0.15101	0	-1.51	0	0	0	0	0.6695	0	-0.269741	0	0	0
0.34	-9.23919	713.348	-27.4048	0.165044	0.006	-0.150806	0	-1.78625	0	0	0	0	0.6695	0	-0.269741	0	0	0
0.35	-3.38744	722.809	-27.5192	0.16724	0.006	-0.150619	0	-2.01472	0	0	0	0	0.6695	0	-0.269741	0	0	0
0.36	1.79291	733.353	-27.8854	0.169315	0.006	-0.150616	0	-2.28076	0	0	0	0	0.6695	0	-0.269741	0	0	0
0.37	7.06483	746.155	-27.5879	0.171796	0.006	-0.1507	0	-2.46322	0	0	0	0	0.6695	0	-0.269741	0	0	0
0.38	12.5351	759.613	-26.3138	0.17432	0.006	-0.150881	0	-2.66917	0	0	0	0	0.6695	0	-0.269741	0	0	0
0.39	17.8452	775.04	-24.8413	0.17714	0.006	-0.151216	0	-2.82956	0	0	0	0	0.6695	0	-0.269741	0	0	0
0.4	22.8577	792.984	-24.0402	0.179991	0.006	-0.151487	0	-3.04442	0	0	0	0	0.6695	0	-0.269741	0	0	0
0.41	27.771	812.149	-23.9944	0.183011	0.006	-0.151644	0	-3.19671	0	0	0	0	0.6695	0	-0.269741	0	0	0
0.42	32.7835	832.825	-25.116	0.186099	0.006	-0.151508	0	-3.27536	0	0	0	0	0.6695	0	-0.269741	0	0	0
0.43	38.0936	856.964	-28.4424	0.189259	0.006	-0.151302	0	-3.45866	0	0	0	0	0.6695	0	-0.269741	0	0	0
0.44	44.0674	884.262	-33.3252	0.192345	0.006	-0.150975	0	-3.66419	0	0	0	0	0.6695	0	-0.269741	0	0	0
0.45	51.1017	915.009	-39.9551	0.195306	0.006	-0.150658	0	-3.77427	0	0	0	0	0.6695	0	-0.269741	0	0	0
0.46	59.1354	946.945	-47.3785	0.198366	0.006	-0.150201	0	-3.85494	0	0	0	0	0.6695	0	-0.269741	0	0	0
0.47	66.5741	976.41	-53.7338	0.201499	0.006	-0.149823	0	-3.81609	0	0	0	0	0.6695	0	-0.269741	0	0	0
0.48	74.3103	1001.1	-57.9758	0.204926	0.006	-0.149653	0	-3.69929	0	0	0	0	0.6695	0	-0.269741	0	0	0
0.49	81.7719	1019.56	-59.1125	0.208278	0.006	-0.149437	0	-3.54398	0	0	0	0	0.6695	0	-0.269741	0	0	0
0.5	90.7745	1032.67	-59.1812	0.211933	0.006	-0.149393	0	-3.27096	0	0	0	0	0.6695	0	-0.269741	0	0	0
0.51	102.737	1044.77	-59.7076	0.215476	0.006	-0.149672	0	-2.8771	0	0	0	0	0.6695	0	-0.269741	0	0	0
0.52	117.645	1053.8	-59.761	0.21892	0.006	-0.15011	0	-2.42624	0	0	0	0	0.6695	0	-0.269741	0	0	0
0.53	134.285	1061.94	-58.5709	0.222173	0.006	-0.15087	0	-2.03484	0	0	0	0	0.6695	0	-0.269741	0	0	0
0.54	152.725	1065.48	-54.6875	0.225317	0.006	-0.15192	0	-1.83709	0	44.4259	46.5699	-6.46209	0.696161	0.0054	-0.266168	0	1.21257	0
0.55	168.816	1062	-48.5535	0.228748	0.006	-0.153283	0	-1.86903	0	90.7897	162.781	-16.5481	0.720052	0.006	-0.271559	0	0.612952	0
0.56	184.074	1049.13	-40.4053	0.232411	0.006	-0.154958	0	-2.11686	0	43.4875	239.914	-26.4816	0.730808	0.006	-0.269352	0	-0.705437	0
0.57	197.151	1019.18	-30.3116	0.236249	0.006	-0.156719	0	-2.50997	0	-23.7122	258.972	-39.0549	0.73862	0.006	-0.26658	0	-1.76738	0
0.58	208.336	968.536	-19.0506	0.240334	0.006	-0.158704	0	-2.88653	0	-65.5061	297.714	-43.6401	0.747199	0.006	-0.266597	0	-1.96225	0
0.59	216.08	898.682	-6.3858	0.244707	0.006	-0.160755	0	-3.33	0	-70.6406	372.589	-41.5344	0.754554	0.006	-0.268519	0	-1.43064	0
0.6	216.606	810.303	4.60816	0.249352	0.006	-0.162744	0	-3.71707	0	-62.7595	444.916	-31.0058	0.760783	0.006	-0.271333	0	-0.358988	0
0.61	208.923	705.383	14.7476	0.254572	0.006	-0.164623	0	-3.75602	0	-77.8275	489.41	-12.68	0.769137	0.006	-0.274229	0	0.71396	0
0.62	191.994	584.854	21.9574	0.260389	0.006	-0.166089	0	-3.61703	0	-102.684	529.099	6.6681	0.779003	0.006	-0.277414	0	1.50818	0
0.63	162.285	455.383	25.0168	0.267982	0.006	-0.166897	0	-3.19886	0	-121.697	580.902	20.0195	0.787313	0.006	-0.279675	0	1.50002	0
0.64	118.866	330.2	24.0936	0.278478	0.006	-0.167255	0	-2.7195	0	-120.674	637.543	20.0043	0.792466	0.006	-0.279928	0	0.795665	0
0.65	71.1212	235.092	18.6844	0.29069	0.006	-0.166677	0	-2.03633	0	-119.354	698.532	21.492	0.797319	0.006	-0.279862	0	0.888674	0
0.66	42.4652	160.522	11.528	0.299217	0.006	-0.165113	0	-1.18363	0	-129.768	755.417	28.6102	0.80164	0.006	-0.280035	0	1.49465	0
0.67	30.7693	95.1996	4.73786	0.30663	0.006	-0.161784	0	-0.416151	0	-129.021	799.515	34.8053	0.805198	0.006	-0.280407	0	1.4847	0
0.68	20.3934	48.4924	0.999454	0.314512	0.006	-0.155156	0	0.013451	0	-126.297	834.106	40.802	0.807851	0.006	-0.28066	0	1.11159	0
0.69	7.36895	13.5819	0.123011	0.331066	0.0033	-0.144204	0	0.0950986	0	-123.169	874.451	49.9268	0.810043	0.006	-0.280843	0	1.06611	0
0.7	0	0	0	0.360345	0	-0.141261	0	0	0	-118.782	915.604	52.8793	0.812116	0.006	-0.280552	0	0.920658	0
0.71	0	0	0	0.389515	0	-0.139933	0	0	0	-112.618	947.998	47.8134	0.814676	0.006	-0.280083	0	0.815843	0
0.72	0	0	0	0.418686	0	-0.138605	0	0	0	-106.88	970.917	43.0985	0.817882	0.006	-0.279466	0	0.908598	0
0.73	0	0	0	0.447856	0	-0.137277	0	0	0	-100.67	982.605	40.062	0.821996	0.006	-0.279049	0	1.09881	0
0.74	0	0	0	0.477027	0	-0.135949	0	0	0	-96.8171	984.528	39.0625	0.826445	0.006	-0.278705	0	1.32414	0
